<!DOCTYPE svg PUBLIC "-//W3C//DTD SVG 1.1//EN" "http://www.w3.org/Graphics/SVG/1.1/DTD/svg11.dtd">
<!-- Uploaded to: SVG Repo, www.svgrepo.com, Transformed by: SVG Repo Mixer Tools -->
<svg fill="#ffffff" height="256px" width="256px" version="1.1" id="Capa_1" xmlns="http://www.w3.org/2000/svg" xmlns:xlink="http://www.w3.org/1999/xlink" viewBox="0 0 492.499 492.499" xml:space="preserve" stroke="#ffffff">
<g id="SVGRepo_bgCarrier" stroke-width="0"/>
<g id="SVGRepo_tracerCarrier" stroke-linecap="round" stroke-linejoin="round"/>
<g id="SVGRepo_iconCarrier"> <g> <path d="M141.691,231.469h19.911c3.401,0,6.161-2.76,6.161-6.162c0-3.4-2.76-6.161-6.161-6.161h-19.911 c-3.403,0-6.161,2.761-6.161,6.161C135.53,228.709,138.289,231.469,141.691,231.469z"/> <path d="M488.272,326.838l-80.416-114.39c-5.311-7.517-15.115-11.167-23.89-9.233c-9.163,2.037-16.126,9.322-17.762,18.587 l-10.75,61.7h-10.478v-2.07c0-7.059-3.289-13.301-8.326-17.496v-13.654c0-25.31-18.901-47.116-43.963-50.709l-41.781-5.994 l-42.533-49.626c-9.756-11.368-23.923-17.889-38.892-17.889H107.82c-19.269,0-36.742,10.653-45.566,27.806l-21.388,41.587 l-23.473,9.715c-4.604,1.901-7.606,6.402-7.606,11.384v46.167C3.884,266.864,0,273.698,0,281.431v14.665 C0,308.7,10.254,318.96,22.863,318.96h8.12c0,0.281-0.08,0.546-0.08,0.827c0,25.719,20.921,46.648,46.642,46.648 c25.719,0,46.641-20.93,46.641-46.648c0-0.281-0.081-0.546-0.081-0.827h96.766c0,0.281-0.081,0.546-0.081,0.827 c0,25.719,20.923,46.648,46.643,46.648c25.719,0,46.657-20.93,46.657-46.648c0-0.281-0.081-0.546-0.081-0.827h8.103 c8.184,0,15.306-4.349,19.349-10.814h14.779c1.732,7.004,4.653,13.725,8.936,19.799c9.001,12.827,22.479,21.372,37.93,24.075 l62.318,10.854c1.331,0.233,2.647,0.345,3.963,0.345c7.973,0,15.258-4.019,19.494-10.717 C493.918,344.576,493.678,334.5,488.272,326.838z M231.301,216.58v41.987H130.427V216.58H231.301z M289.189,223.961 c13.013,1.868,22.816,13.188,22.816,26.32v8.287h-64.274v-40.552L289.189,223.961z M84.171,165.14 c4.573-8.905,13.639-14.432,23.649-14.432h61.661c7.765,0,15.114,3.385,20.184,9.289l34.415,40.152H66.169L84.171,165.14z M54.279,216.58h59.719v41.987H34.432v-33.773L54.279,216.58z M24.645,294.316v-11.095h24.293 c-4.012,3.145-7.574,6.818-10.382,11.095H24.645z M77.545,341.791c-12.13,0-21.998-9.866-21.998-22.004 c0-12.139,9.868-22.006,21.998-22.006c12.128,0,21.996,9.867,21.996,22.006C99.541,331.925,89.673,341.791,77.545,341.791z M116.533,294.316c-2.808-4.276-6.37-7.95-10.38-11.095h132.673c-4.012,3.145-7.574,6.818-10.382,11.095H116.533z M267.433,341.791 c-12.13,0-21.998-9.866-21.998-22.004c0-12.139,9.868-22.006,21.998-22.006c12.145,0,22.013,9.867,22.013,22.006 C289.446,331.925,279.578,341.791,267.433,341.791z M306.437,294.316c-2.808-4.276-6.37-7.95-10.38-11.095h24.275v11.095H306.437z M407.342,327.745c-8.969-1.566-16.783-6.531-22.012-13.975c-5.151-7.332-7.238-16.607-5.68-25.448l10.205-58.634l76.116,108.268 L407.342,327.745z"/> </g> </g>
</svg>